<svg xmlns="http://www.w3.org/2000/svg" width="11.961" height="10.875" viewBox="0 0 11.961 10.875">
  <g id="Group_545" data-name="Group 545" transform="translate(-109.838 -16698.52)">
    <path id="Path_177" data-name="Path 177" d="M11.086,13.318H4.126a2.014,2.014,0,0,1-1.852-2.982l3.48-6.048a2.165,2.165,0,0,1,3.7,0l3.48,6.048a2.014,2.014,0,0,1-1.852,2.982Z" transform="translate(108.213 16695.674)" fill="none" stroke="#f43737" stroke-linecap="round" stroke-linejoin="round" stroke-width="0.8"/>
    <path id="Path_178" data-name="Path 178" d="M10.881,13.209a.621.621,0,1,1,.741.6.621.621,0,0,1-.741-.6Zm.2-1.527L11,8.762a.5.5,0,1,1,1,0l-.073,2.92a.425.425,0,0,1-.85,0Z" transform="translate(104.312 16693.49)" fill="#f7232e"/>
  </g>
</svg>
