<svg xmlns="http://www.w3.org/2000/svg" width="26.025" height="22.394" viewBox="0 0 26.025 22.394">
  <g id="style_doutone" data-name="style=doutone" transform="translate(-1.25 -2.75)">
    <g id="email" transform="translate(1.25 2.75)">
      <path id="vector_Stroke_" data-name="vector (Stroke)" d="M4.44,5.761A5.115,5.115,0,0,0,3.066,9.71v8.473a5.115,5.115,0,0,0,1.374,3.95,5.378,5.378,0,0,0,3.77,1.195h12.1a5.378,5.378,0,0,0,3.77-1.195,5.116,5.116,0,0,0,1.374-3.95V9.71a5.116,5.116,0,0,0-1.374-3.95,5.378,5.378,0,0,0-3.77-1.195H8.21A5.378,5.378,0,0,0,4.44,5.761ZM3.2,4.43A7.162,7.162,0,0,1,8.21,2.75h12.1A7.161,7.161,0,0,1,25.32,4.43a6.9,6.9,0,0,1,1.955,5.28v8.473a6.9,6.9,0,0,1-1.955,5.28,7.161,7.161,0,0,1-5.006,1.68H8.21A7.161,7.161,0,0,1,3.2,23.464a6.9,6.9,0,0,1-1.954-5.28V9.71A6.9,6.9,0,0,1,3.2,4.43Z" transform="translate(-1.25 -2.75)" fill="#ff6504" fill-rule="evenodd"/>
      <path id="vector_Stroke__2" data-name="vector (Stroke)_2" d="M22.5,7.372a.908.908,0,0,1-.163,1.273l-6.715,5.188a3.329,3.329,0,0,1-4.071,0L4.833,8.645a.908.908,0,1,1,1.11-1.437L12.657,12.4a1.513,1.513,0,0,0,1.85,0l6.715-5.188A.908.908,0,0,1,22.5,7.372Z" transform="translate(-0.57 -1.852)" fill="#fff" fill-rule="evenodd"/>
    </g>
  </g>
</svg>
