<svg xmlns="http://www.w3.org/2000/svg" width="208.549" height="35.086" viewBox="0 0 208.549 35.086">
  <g id="Group_537" data-name="Group 537" transform="translate(-14797 -4373)">
    <g id="Group_382" data-name="Group 382" transform="translate(14835.877 4376.382)">
      <path id="Path_101" data-name="Path 101" d="M88.986,5.57h4.645a.458.458,0,0,1,.446.552L89.135,29.36a.456.456,0,0,1-.446.361H84.044a.457.457,0,0,1-.446-.552L88.54,5.931a.456.456,0,0,1,.446-.361" transform="translate(33.529 -5.57)" fill="#fff"/>
      <path id="Path_102" data-name="Path 102" d="M93.992,5.57h14.649a.457.457,0,0,1,.446.55l-.83,3.985a.456.456,0,0,1-.448.363H98.517a.458.458,0,0,0-.446.365l-.9,4.29a.456.456,0,0,0,.446.55h7.105a.457.457,0,0,1,.448.55l-.76,3.61a.456.456,0,0,1-.446.363H96.442a.456.456,0,0,0-.446.363l-1.855,8.8a.456.456,0,0,1-.446.363H89.05a.457.457,0,0,1-.446-.552L93.546,5.931a.456.456,0,0,1,.446-.361" transform="translate(38.727 -5.57)" fill="#fff"/>
      <path id="Path_103" data-name="Path 103" d="M103.487,21.309,99.064,6.155A.457.457,0,0,1,99.5,5.57h5.077a.458.458,0,0,1,.446.363l2.04,9.643a.457.457,0,0,0,.83.155l6.443-9.953a.454.454,0,0,1,.383-.208h4.912a.457.457,0,0,1,.371.724L109.086,21.411a.441.441,0,0,0-.075.173l-1.639,7.774a.456.456,0,0,1-.446.363h-4.641a.456.456,0,0,1-.446-.554l1.657-7.633a.464.464,0,0,0-.008-.224" transform="translate(49.579 -5.57)" fill="#fff"/>
      <path id="Path_100" data-name="Path 100" d="M80.976,10.468H75.2a.457.457,0,0,1-.446-.55l.83-3.985a.454.454,0,0,1,.446-.363H94.448a.456.456,0,0,1,.448.548l-.83,3.987a.458.458,0,0,1-.448.363H87.488a.456.456,0,0,0-.446.361L83.081,29.36a.458.458,0,0,1-.446.361H77.99a.459.459,0,0,1-.448-.552L81.422,11.02a.456.456,0,0,0-.446-.552" transform="translate(24.346 -5.556)" fill="#fff"/>
      <path id="Path_96" data-name="Path 96" d="M31.526,5.57H36.85a.456.456,0,0,1,.444.351l2.666,11.245a.458.458,0,0,0,.825.147L48.437,5.774a.462.462,0,0,1,.381-.2h5.244a.457.457,0,0,1,.446.552L49.567,29.36a.456.456,0,0,1-.446.361H44.443A.457.457,0,0,1,44,29.169l2.466-11.52a.456.456,0,0,0-.828-.346L40.2,25.569a.453.453,0,0,1-.381.206H37.439a.456.456,0,0,1-.444-.355l-1.843-8.135a.457.457,0,0,0-.893.006L31.675,29.36a.456.456,0,0,1-.446.361H26.584a.457.457,0,0,1-.446-.552L31.08,5.931a.456.456,0,0,1,.446-.361" transform="translate(-26.127 -5.57)" fill="#fff"/>
      <path id="Path_97" data-name="Path 97" d="M45.294,5.57h14.95a.456.456,0,0,1,.446.552l-.858,3.985a.454.454,0,0,1-.446.361H49.819a.458.458,0,0,0-.446.363l-.795,3.781a.456.456,0,0,0,.446.55h7.719a.456.456,0,0,1,.446.55l-.76,3.612a.454.454,0,0,1-.446.363H47.877a.458.458,0,0,0-.446.359l-.923,4.223a.457.457,0,0,0,.446.554h9.484a.457.457,0,0,1,.448.55l-.83,3.985a.458.458,0,0,1-.448.363H40.352a.457.457,0,0,1-.446-.552L44.848,5.931a.456.456,0,0,1,.446-.361" transform="translate(-11.833 -5.57)" fill="#fff"/>
      <path id="Path_98" data-name="Path 98" d="M54.907,5.57h3.705a.454.454,0,0,1,.406.249L65.549,18.6a.457.457,0,0,0,.854-.114L69.055,5.933A.456.456,0,0,1,69.5,5.57h4.643a.456.456,0,0,1,.446.552L69.65,29.36a.458.458,0,0,1-.446.361H65.427a.454.454,0,0,1-.4-.245L58.495,17.033a.457.457,0,0,0-.852.116L55.056,29.358a.456.456,0,0,1-.446.363H49.965a.457.457,0,0,1-.446-.552L54.461,5.931a.456.456,0,0,1,.446-.361" transform="translate(-1.852 -5.57)" fill="#fff"/>
      <path id="Path_99" data-name="Path 99" d="M70.569,29.925a9.844,9.844,0,0,1-3.742-.63,6.583,6.583,0,0,1-2.5-1.735,6.785,6.785,0,0,1-1.41-2.619,11.5,11.5,0,0,1-.442-3.249,18.363,18.363,0,0,1,.408-3.775L65.457,5.931A.456.456,0,0,1,65.9,5.57h4.643a.456.456,0,0,1,.446.552l-2.534,11.8a13.845,13.845,0,0,0-.306,2.754,7.221,7.221,0,0,0,.188,1.7,3.875,3.875,0,0,0,.6,1.359,2.745,2.745,0,0,0,1.072.9,3.647,3.647,0,0,0,1.614.322,4.5,4.5,0,0,0,2.313-.6,5.982,5.982,0,0,0,1.769-1.582,9.605,9.605,0,0,0,1.258-2.26,17.816,17.816,0,0,0,.817-2.6L80.322,5.931a.456.456,0,0,1,.446-.361h4.645a.457.457,0,0,1,.448.55l-2.5,11.8a20.255,20.255,0,0,1-1.616,4.694,14.6,14.6,0,0,1-2.67,3.809,11.524,11.524,0,0,1-8.5,3.5" transform="translate(11.609 -5.57)" fill="#fff"/>
    </g>
    <g id="Group_301" data-name="Group 301" transform="translate(14797 4373)">
      <path id="Path_92" data-name="Path 92" d="M24.6,0V28c-4.346-.381-9.547,3.6-13.618,7.086V13.2C13.553,8.832,18.3,4.429,24.6,0" transform="translate(4.36 0)" fill="#eb5b00"/>
      <path id="Path_93" data-name="Path 93" d="M21.687,0V24.3c-3.22-.422-8.032,3.943-10.7,7.761V10.374A29.853,29.853,0,0,1,21.687,0" transform="translate(4.36 0)" fill="#ff6503"/>
      <path id="Path_94" data-name="Path 94" d="M0,0V28c4.346-.381,9.547,3.6,13.618,7.086V13.2C11.05,8.832,6.305,4.429,0,0" transform="translate(0 0)" fill="#eb5b00"/>
      <path id="Path_95" data-name="Path 95" d="M2.088,0V24.3c3.22-.422,8.032,3.943,10.7,7.761V10.374A29.853,29.853,0,0,0,2.088,0" transform="translate(0.829 0)" fill="#ff6503"/>
    </g>
  </g>
</svg>
