<svg xmlns="http://www.w3.org/2000/svg" width="24.382" height="24.394" viewBox="0 0 24.382 24.394">
  <g id="Group_499" data-name="Group 499" transform="translate(-130 -304)">
    <path id="Path_156" data-name="Path 156" d="M17.888,2H8.505C4.43,2,2,4.43,2,8.505v9.372c0,4.087,2.43,6.517,6.505,6.517h9.372c4.076,0,6.505-2.43,6.505-6.505V8.505C24.394,4.43,21.964,2,17.888,2Z" transform="translate(129 303)" fill="none" stroke="#ff6504" stroke-width="2"/>
    <path id="Path_157" data-name="Path 157" d="M10.829,17.3a.831.831,0,0,1-.593-.246.845.845,0,0,1,0-1.187l3.359-3.359L10.236,9.153a.839.839,0,1,1,1.187-1.187l3.952,3.953a.845.845,0,0,1,0,1.187l-3.952,3.952A.83.83,0,0,1,10.829,17.3Z" transform="translate(129.957 303.685)" fill="#fff"/>
  </g>
</svg>
