<svg xmlns="http://www.w3.org/2000/svg" width="131.877" height="22.187" viewBox="0 0 131.877 22.187">
  <g id="Group_371" data-name="Group 371" transform="translate(-490.316 -347)">
    <path id="Path_101" data-name="Path 101" d="M87,5.57h2.937a.289.289,0,0,1,.282.349L87.1,20.614a.288.288,0,0,1-.282.228H83.876a.289.289,0,0,1-.282-.349L86.719,5.8A.288.288,0,0,1,87,5.57" transform="translate(493.373 343.569)" fill="#000"/>
    <path id="Path_102" data-name="Path 102" d="M92.007,5.57h9.263a.289.289,0,0,1,.282.348l-.525,2.52a.289.289,0,0,1-.284.229H94.869a.289.289,0,0,0-.282.231l-.567,2.713a.288.288,0,0,0,.282.348h4.493a.289.289,0,0,1,.284.348L98.6,14.59a.288.288,0,0,1-.282.229H93.557a.288.288,0,0,0-.282.229L92.1,20.613a.288.288,0,0,1-.282.229H88.882a.289.289,0,0,1-.282-.349L91.725,5.8a.288.288,0,0,1,.282-.228" transform="translate(494.819 343.569)" fill="#000"/>
    <path id="Path_103" data-name="Path 103" d="M101.855,15.523l-2.8-9.583a.289.289,0,0,1,.277-.37h3.211a.289.289,0,0,1,.282.229l1.29,6.1a.289.289,0,0,0,.525.1L108.717,5.7a.287.287,0,0,1,.242-.131h3.106a.289.289,0,0,1,.235.458l-6.9,9.56a.279.279,0,0,0-.048.11l-1.036,4.916a.288.288,0,0,1-.282.229h-2.935a.289.289,0,0,1-.282-.351l1.048-4.827a.294.294,0,0,0-.005-.142" transform="translate(497.839 343.569)" fill="#000"/>
    <g id="Group_302" data-name="Group 302" transform="translate(478.316 347)">
      <path id="Path_100" data-name="Path 100" d="M78.684,8.667H75.03a.289.289,0,0,1-.282-.348l.525-2.52a.287.287,0,0,1,.282-.229H87.2a.288.288,0,0,1,.284.347l-.525,2.521a.29.29,0,0,1-.284.229H82.8a.288.288,0,0,0-.282.228l-2.5,11.719a.29.29,0,0,1-.282.228H76.8a.29.29,0,0,1-.284-.349L78.966,9.016a.288.288,0,0,0-.282-.349" transform="translate(12.501 -3.423)" fill="#000"/>
      <path id="Path_96" data-name="Path 96" d="M29.541,5.57h3.367a.288.288,0,0,1,.281.222L34.875,12.9A.289.289,0,0,0,35.4,13l4.838-7.3a.292.292,0,0,1,.241-.129h3.316a.289.289,0,0,1,.282.349L40.949,20.614a.288.288,0,0,1-.282.228H37.709a.289.289,0,0,1-.282-.349l1.56-7.285a.289.289,0,0,0-.523-.219l-3.435,5.228a.287.287,0,0,1-.241.13H33.28A.288.288,0,0,1,33,18.122l-1.165-5.144a.289.289,0,0,0-.565,0l-1.634,7.632a.288.288,0,0,1-.282.228H26.416a.289.289,0,0,1-.282-.349L29.259,5.8a.288.288,0,0,1,.282-.228" transform="translate(-1.543 -3.431)" fill="#000"/>
      <path id="Path_97" data-name="Path 97" d="M43.309,5.57h9.454a.289.289,0,0,1,.282.349L52.5,8.439a.287.287,0,0,1-.282.228h-6.05a.29.29,0,0,0-.282.229l-.5,2.391a.288.288,0,0,0,.282.348h4.881a.288.288,0,0,1,.282.348l-.481,2.284a.287.287,0,0,1-.282.229H44.942a.289.289,0,0,0-.282.227l-.584,2.671a.289.289,0,0,0,.282.351h6a.289.289,0,0,1,.284.348l-.525,2.52a.29.29,0,0,1-.284.229H40.184a.289.289,0,0,1-.282-.349L43.027,5.8a.288.288,0,0,1,.282-.228" transform="translate(2.434 -3.431)" fill="#000"/>
      <path id="Path_98" data-name="Path 98" d="M52.922,5.57h2.343a.287.287,0,0,1,.256.157l4.13,8.085a.289.289,0,0,0,.54-.072L61.868,5.8a.288.288,0,0,1,.282-.229h2.936a.288.288,0,0,1,.282.349L62.245,20.614a.289.289,0,0,1-.282.228H59.574a.287.287,0,0,1-.255-.155l-4.128-7.869a.289.289,0,0,0-.539.073l-1.636,7.72a.288.288,0,0,1-.282.229H49.8a.289.289,0,0,1-.282-.349L52.64,5.8a.288.288,0,0,1,.282-.228" transform="translate(5.212 -3.431)" fill="#000"/>
      <path id="Path_99" data-name="Path 99" d="M67.592,20.971a6.225,6.225,0,0,1-2.366-.4,4.163,4.163,0,0,1-1.581-1.1,4.29,4.29,0,0,1-.892-1.656,7.275,7.275,0,0,1-.28-2.054,11.612,11.612,0,0,1,.258-2.387L64.36,5.8a.288.288,0,0,1,.282-.228h2.936a.288.288,0,0,1,.282.349l-1.6,7.459a8.755,8.755,0,0,0-.193,1.741,4.566,4.566,0,0,0,.119,1.076,2.45,2.45,0,0,0,.376.86,1.736,1.736,0,0,0,.678.571,2.306,2.306,0,0,0,1.021.2,2.846,2.846,0,0,0,1.463-.376,3.782,3.782,0,0,0,1.119-1,6.074,6.074,0,0,0,.8-1.429,11.265,11.265,0,0,0,.517-1.646L73.76,5.8a.288.288,0,0,1,.282-.228h2.937a.289.289,0,0,1,.284.348l-1.583,7.46a12.808,12.808,0,0,1-1.022,2.968,9.235,9.235,0,0,1-1.688,2.409,7.287,7.287,0,0,1-5.377,2.216" transform="translate(8.957 -3.431)" fill="#000"/>
      
    </g>
  </g>
</svg>